<svg width="537.5625" height="368.125" xmlns="http://www.w3.org/2000/svg">
 <metadata id="metadata3362">image/svg+xml</metadata>

 <g>
  <title>Layer 1</title>
  <path d="m220.85699,440.6682c-3.93256,-3.68554 -6.65177,-7.65913 -7.78986,-11.38331c-0.42302,-1.38424 -0.9417,-2.5168 -1.15262,-2.5168c-0.21093,0 -0.94747,1.09526 -1.63675,2.43392c-0.68929,1.33866 -2.05352,3.44198 -3.03162,4.67403c-2.32402,2.92743 -9.18909,7.6968 -11.07882,7.6968c-2.97277,0 -9.8629,-9.36474 -11.13984,-15.14076c-0.39118,-1.76941 -0.9326,-3.21712 -1.20315,-3.21712c-0.27056,0 -0.49192,0.22897 -0.49192,0.50882c0,0.27985 -1.07279,1.74253 -2.38398,3.2504c-2.78275,3.20017 -10.64892,7.43522 -14.21146,7.65126c-2.09597,0.12711 -2.4056,-0.07053 -4.20164,-2.68207c-2.70356,-3.93107 -4.40502,-8.86985 -4.78546,-13.89058l-0.32384,-4.27388l-1.72571,1.24389c-2.83031,2.0401 -8.28952,3.45465 -13.33261,3.45465c-6.44115,0 -7.29719,-0.43668 -8.18296,-4.1743c-1.07038,-4.51661 -0.50489,-13.83181 1.02282,-16.84844l1.1996,-2.36876l-5.25814,0.20906c-5.58749,0.22215 -10.76781,-1.019 -14.9458,-3.58085c-1.76984,-1.08522 -1.87826,-1.33532 -1.57557,-3.63433c0.86651,-6.5813 3.40537,-12.82195 6.64412,-16.3316c0.99256,-1.07557 1.80466,-2.06066 1.80466,-2.18907c0,-0.12841 -0.87361,-0.23346 -1.94135,-0.23346c-4.28222,0 -11.03237,-2.85083 -15.80983,-6.67704c-1.91735,-1.53559 -2.19919,-2.04993 -1.91406,-3.49306c1.01458,-5.13519 6.36729,-13.15068 10.30021,-15.42419c1.28475,-0.74268 2.33794,-1.52054 2.34041,-1.72857c0.0025,-0.20803 -0.9827,-0.56186 -2.18928,-0.78629c-5.3523,-0.99554 -16.52652,-8.77201 -16.52652,-11.5013c0,-1.19473 2.79972,-5.79959 5.71784,-9.40448c1.12948,-1.3953 3.59571,-3.50043 5.4805,-4.67807c3.5319,-2.20677 4.23497,-3.1572 2.33548,-3.1572c-0.60028,0 -2.90578,-0.91883 -5.12334,-2.04184c-4.13924,-2.0962 -11.33553,-8.64675 -11.33553,-10.31839c0,-3.02425 8.49945,-12.1409 13.10766,-14.05947c1.47577,-0.61442 2.6842,-1.28078 2.68541,-1.48082c0.00119,-0.20003 -1.24827,-0.84267 -2.77661,-1.42808c-1.52833,-0.58541 -3.43693,-1.47149 -4.24132,-1.96906c-5.06405,-3.13246 -9.96637,-8.55938 -9.92285,-10.98472c0.05501,-3.06614 8.42416,-11.06942 13.71391,-13.1144c1.45422,-0.56218 2.64404,-1.19426 2.64404,-1.4046c0,-0.21035 -1.18321,-0.73611 -2.62935,-1.16834c-4.83912,-1.44636 -14.33592,-10.04251 -14.33592,-12.97634c0,-3.11518 10.60516,-12.66107 14.99143,-13.49404c1.98465,-0.37689 2.76485,-1.42741 1.06011,-1.42741c-1.85465,0 -7.07959,-2.99359 -10.30585,-5.90466c-3.5834,-3.23331 -5.74569,-6.28595 -5.74569,-8.11153c0,-2.9629 10.58299,-12.14433 14.95525,-12.97463c2.68165,-0.50926 2.53331,-1.04696 -0.51664,-1.87271c-5.05031,-1.36733 -14.4386,-10.0226 -14.4386,-13.31125c0,-3.29218 10.25695,-12.28096 15.14219,-13.27c2.38298,-0.48244 2.31768,-1.17969 -0.15444,-1.64916c-4.85475,-0.92194 -14.98774,-9.92972 -14.98774,-13.32343c0,-3.48698 10.1608,-12.44401 15.29571,-13.4836c1.74788,-0.35386 2.32156,-1.37434 0.77261,-1.37434c-1.19799,0 -6.51674,-2.75565 -8.96643,-4.64551c-2.87913,-2.22117 -7.10188,-7.69562 -7.10188,-9.20702c0,-3.10642 10.51661,-12.29538 15.05914,-13.15802c1.04837,-0.19909 1.90164,-0.53219 1.89615,-0.74022c-0.00549,-0.20803 -1.45318,-1.01066 -3.21707,-1.78362c-5.12071,-2.24397 -13.15321,-10.30799 -13.15321,-13.20482c0,-2.98297 8.81012,-10.81729 14.29024,-12.70747c1.47127,-0.50746 2.67405,-1.09747 2.67284,-1.31114c-0.00125,-0.21366 -1.20964,-0.89118 -2.68541,-1.5056c-4.61777,-1.92255 -13.10766,-11.03617 -13.10766,-14.07065c0,-1.14153 5.00407,-6.37321 8.2747,-8.65108c2.95725,-2.05961 6.58,-3.69796 8.17701,-3.69796c1.82195,0 1.2424,-1.08603 -1.27265,-2.38487c-3.27852,-1.69311 -8.7991,-7.52743 -10.82029,-11.43522c-2.05999,-3.98281 -1.77584,-4.7666 3.20885,-8.85107c3.69757,-3.02981 8.40624,-5.43696 11.88394,-6.07528c2.53628,-0.46552 2.76263,-1.00275 0.80327,-1.90645c-3.93809,-1.81634 -8.4622,-7.8915 -10.71563,-14.38938l-1.05657,-3.0467l2.34004,-2.05822c3.48385,-3.06428 10.0255,-6.04464 14.24813,-6.4914c1.97706,-0.20918 3.59466,-0.48882 3.59466,-0.62142c0,-0.13259 -0.90199,-1.18124 -2.00443,-2.33032c-3.35859,-3.50067 -5.98567,-10.22878 -6.30554,-16.14885l-0.17268,-3.19595l4.09507,-1.8072c3.76465,-1.66139 4.63957,-1.80966 10.84351,-1.83766l6.74845,-0.03047l-1.32322,-3.25704c-0.99864,-2.4581 -1.32663,-4.44831 -1.33711,-8.11346c-0.0152,-5.315 0.92925,-10.88376 1.96186,-11.56778c0.36123,-0.23929 3.04411,-0.43916 5.96196,-0.44414c5.91801,-0.01011 10.44292,1.08696 13.67578,3.31571l2.07941,1.43357l0.37354,-4.30379c0.43284,-4.98695 2.13307,-9.9148 4.80258,-13.91955c1.76137,-2.64237 2.03031,-2.81369 4.26447,-2.71653c4.88665,0.21251 15.18658,6.70909 16.30816,10.28621c0.40876,1.3037 1.45419,1.57472 1.45419,0.37699c0,-3.6228 3.76147,-10.76413 8.08713,-15.35381c3.06861,-3.2559 3.66192,-3.26722 8.28219,-0.15797c4.59012,3.08896 7.56644,6.32052 9.34098,10.14203c1.43774,3.09618 2.11523,3.27038 2.59754,0.66789c0.79017,-4.26369 9.83318,-15.24397 12.55444,-15.24397c3.31091,0 13.5436,12.22163 13.5436,16.17609c0,0.54858 0.26325,0.99741 0.58501,0.99741c0.32175,0 0.58522,-0.3331 0.58547,-0.74024c0.00025,-0.40713 0.79324,-2.4366 1.7622,-4.50994c2.15737,-4.61627 9.037,-11.92332 11.22588,-11.92332c3.66768,0 11.26675,8.73586 13.55477,15.58252c0.3859,1.15477 1.53715,0.8339 1.53715,-0.42843c0,-1.16136 2.6999,-6.05517 4.83159,-8.75768c2.55246,-3.23596 6.72038,-6.39641 8.43543,-6.39641c2.30507,0 9.06557,7.32605 11.39872,12.35229c1.07371,2.31306 2.1211,4.21084 2.32753,4.21729c0.20644,0.00645 0.55259,-0.70316 0.76923,-1.57692c1.25894,-5.07758 10.23844,-14.9798 13.59358,-14.99045c0.38385,-0.00122 2.28825,1.48823 4.232,3.30988c3.77726,3.54 7.41838,8.99908 8.01443,12.01594c0.20054,1.015 0.57148,1.84547 0.82431,1.84547c0.25284,0 1.05616,-1.24723 1.78516,-2.77162c1.74272,-3.64417 7.21371,-9.03633 11.35929,-11.19562l3.31333,-1.72579l3.4052,3.81692c3.60992,4.04638 6.65653,9.53413 7.33294,13.20853c0.44426,2.41327 1.16517,2.87325 1.72163,1.09849c0.57918,-1.84723 5.98405,-6.55974 9.25207,-8.06691c1.67894,-0.7743 4.33102,-1.75119 5.8935,-2.17088c2.79953,-0.75195 2.85991,-0.7389 4.1483,0.89673c3.43859,4.36533 6.13168,11.80601 6.15924,17.01719l0.01435,2.7047l4.19222,-2.10647c3.88263,-1.95091 4.66086,-2.1227 10.53817,-2.32634c4.27109,-0.14799 6.61476,0.00594 7.16811,0.47083c2.32173,1.95051 2.66781,15.27513 0.52381,20.1675l-1.16783,2.66485l5.27009,-0.21083c5.70519,-0.22823 8.20004,0.27658 13.42072,2.71555l3.3822,1.58008l-0.35687,2.69512c-0.89729,6.77651 -4.73847,15.82415 -7.30948,17.217c-1.94386,1.05309 -1.29148,1.57918 2.44908,1.97494c4.20595,0.445 10.75314,3.42072 14.22753,6.46646l2.31945,2.03329l-1.61938,4.08302c-2.26909,5.7212 -5.47494,10.28031 -8.70089,12.37368c-1.50575,0.97711 -2.75202,1.93066 -2.76949,2.119c-0.01747,0.18834 1.33938,0.66282 3.01523,1.0544c4.20737,0.98309 9.56319,4.16657 13.01363,7.73525l2.8979,2.99722l-1.30201,2.71282c-2.68163,5.58735 -7.18802,10.5732 -11.68323,12.9263c-1.90244,0.99586 -2.06622,2.13715 -0.30671,2.13715c2.38214,0 8.48907,3.87543 12.14106,7.70466c2.11075,2.21318 3.83772,4.32917 3.83772,4.70219c0,1.42039 -4.0317,6.96349 -7.18406,9.87722c-1.80769,1.67085 -4.48373,3.53624 -5.94676,4.14533c-1.46303,0.60908 -2.66104,1.28587 -2.66225,1.50397c-0.00125,0.2181 1.27619,0.82637 2.83866,1.35171c5.13007,1.72485 14.12443,9.76767 14.12443,12.63018c0,1.29365 -3.78317,6.25067 -7.01596,9.19291c-1.57405,1.43257 -4.32045,3.24396 -6.10312,4.02531c-3.27143,1.43388 -4.11922,2.30881 -2.23742,2.30906c3.02295,0.00039 11.79077,6.44104 14.58322,10.71249c1.34412,2.05604 1.42843,2.49103 0.78678,4.05913c-1.70226,4.16001 -12.03072,12.46897 -15.49959,12.46897c-0.49181,0 -0.8942,0.26648 -0.8942,0.59219c0,0.3257 0.45691,0.59219 1.01537,0.59219c3.77469,0 15.94991,10.11795 15.94991,13.25482c0,4.00774 -11.35099,13.98591 -15.91012,13.98591c-0.58034,0 -1.05516,0.26648 -1.05516,0.59219c0,0.3257 0.41145,0.59219 0.91434,0.59219c1.64505,0 7.3334,3.15907 10.05502,5.58412c3.35382,2.98839 5.99591,6.64708 5.99591,8.30297c0,3.07517 -10.47438,12.25279 -14.95525,13.10372c-2.55711,0.48561 -2.57087,1.19597 -0.03245,1.67802c4.37572,0.83097 13.84053,8.92637 14.77899,12.64071c0.84075,3.32766 -7.99442,11.87645 -14.34925,13.88413c-1.324,0.41828 -2.40727,0.90686 -2.40727,1.08571c0,0.17885 1.12187,0.62892 2.49305,1.00015c4.67115,1.26467 14.47223,10.30528 14.47223,13.34932c0,1.58028 -5.17736,7.43574 -8.7401,9.88486c-1.87585,1.2895 -4.49391,2.68678 -5.8179,3.10507c-1.324,0.41828 -2.40727,0.91309 -2.40727,1.09955c0,0.18647 1.51371,0.96802 3.3638,1.73677c2.4217,1.00627 4.51269,2.57095 7.46594,5.58673c5.17146,5.28095 6.04955,6.8761 4.94021,8.97437c-1.71462,3.24313 -7.24561,8.03124 -11.80525,10.21969c-2.48487,1.19264 -4.5241,2.30168 -4.53163,2.46453c-0.00755,0.16285 1.23578,0.80856 2.76292,1.4349c3.36023,1.37817 9.74098,7.70231 11.83661,11.73159l1.45489,2.79732l-3.20991,3.33829c-3.92611,4.08312 -8.38391,7.08874 -11.9428,8.05228c-1.47114,0.3983 -2.6748,0.92855 -2.6748,1.17833c0,0.24979 0.85557,0.89392 1.90128,1.4314c3.73026,1.91731 6.89309,5.10557 9.78692,9.86558c1.61537,2.65712 2.93704,5.11988 2.93704,5.47281c0,0.89856 -4.42445,5.08531 -7.79943,7.38043c-2.77143,1.88464 -8.26469,4.16728 -10.02878,4.16728c-1.5134,0 -0.99291,0.86027 1.26213,2.08605c3.42539,1.86196 9.09967,10.42584 10.41022,15.71159c0.30908,1.24659 -0.0234,1.81415 -2.00921,3.42956c-4.40207,3.58102 -11.55788,6.59526 -15.67411,6.60241c-2.25774,0.00442 -2.36248,0.35391 -0.54014,1.80495c2.80934,2.23695 5.82133,9.56143 7.08826,17.23707c0.34407,2.08458 0.25943,2.21637 -2.38392,3.7119c-4.4868,2.53849 -8.48887,3.4439 -14.20945,3.21468l-5.11711,-0.20505l1.2192,2.66485c1.00215,2.19044 1.2192,3.82452 1.2192,9.17894c0,10.75812 -0.51446,11.5477 -7.524,11.5477c-5.63492,0 -10.89793,-1.23957 -13.9751,-3.29148l-2.19378,-1.46285l-0.00374,2.82131c-0.00562,4.91377 -1.73962,10.07252 -5.17797,15.40534c-1.10249,1.70995 -2.44385,3.10899 -2.9808,3.10899c-1.36689,0 -7.85577,-2.63338 -10.81587,-4.3894c-2.52493,-1.498 -6.7623,-5.79889 -6.7623,-6.8639c0,-1.55583 -1.08743,-0.33099 -1.44734,1.63022c-0.97857,5.3324 -8.34066,16.13717 -10.99545,16.13717c-0.68029,0 -3.03514,-1.08144 -5.23301,-2.4032c-4.10353,-2.46778 -8.09322,-6.81338 -9.61888,-10.47693c-0.82548,-1.98224 -1.9558,-2.59278 -1.9558,-1.05642c0,4.35287 -9.37373,15.71312 -12.96543,15.71312c-3.04337,0 -11.47629,-8.99895 -12.88125,-13.74584c-0.36517,-1.2338 -0.82696,-2.24328 -1.02618,-2.24328c-0.19923,0 -1.13474,1.79878 -2.07892,3.99728c-2.07662,4.83538 -9.22606,12.58403 -11.61086,12.58403c-3.12579,0 -11.02884,-8.46457 -12.74167,-13.64695c-0.99066,-2.99738 -1.56251,-3.35188 -2.26192,-1.40227c-2.3735,6.61607 -9.79401,15.04922 -13.24213,15.04922c-2.41104,0 -9.61535,-7.77785 -11.65607,-12.58403c-0.93349,-2.1985 -1.86026,-3.99728 -2.05949,-3.99728c-0.19923,0 -0.66186,1.01234 -1.02806,2.24963c-0.97162,3.28278 -5.27958,8.79319 -9.18856,11.75329c-1.8727,1.41812 -3.73891,2.5784 -4.14713,2.5784c-0.40823,0 -2.31398,-1.47303 -4.235,-3.27338l0.00023,0l-0.00006,-0.00002zm33.50844,-17.71139c0.83602,-4.51106 9.9032,-15.1388 12.91584,-15.1388c3.01264,0 12.07983,10.62774 12.91584,15.1388c0.35612,1.92155 1.41637,2.88987 1.41736,1.29446c0.00025,-0.40713 0.79548,-2.44138 1.76716,-4.52056c1.90173,-4.06925 9.56109,-12.50489 11.35414,-12.50489c0.53277,0 3.14701,2.1985 5.80946,4.88556c3.54334,3.57611 5.22218,5.79551 6.26375,8.28055c0.78263,1.86725 1.59999,3.39954 1.81635,3.40509c0.21636,0.00505 0.70431,-0.98921 1.08434,-2.21061c1.64279,-5.27999 9.1986,-15.54498 11.44229,-15.54498c0.39148,0 2.35072,1.24714 4.35386,2.7714c3.98724,3.03405 8.38116,8.27385 9.47002,11.2931c0.89371,2.47815 1.62907,2.45984 1.62907,-0.04055c0,-1.08085 0.42055,-3.4126 0.93456,-5.18166c1.19276,-4.10517 5.42279,-12.40238 6.54514,-12.83836c2.21159,-0.85908 10.68834,4.08206 14.99086,8.73825c1.50245,1.62596 2.7956,2.95629 2.87367,2.95629c0.07806,0 0.04031,-1.82029 -0.08386,-4.04509c-0.22202,-3.9773 0.53113,-10.63483 1.70861,-15.10358l0.59846,-2.27127l3.0353,0.41321c4.12029,0.5609 11.25102,2.90703 14.38055,4.73143c1.41356,0.82406 2.66742,1.39977 2.78637,1.27936c0.11894,-0.1204 -0.41099,-1.65893 -1.17763,-3.41894c-1.62012,-3.71941 -2.46807,-7.4467 -3.03218,-13.32846c-0.39051,-4.07175 -0.35911,-4.21958 0.97998,-4.6137c2.51213,-0.73937 14.79053,-1.07987 17.32492,-0.48045c1.36746,0.32342 2.48629,0.46135 2.48629,0.30651c0,-0.15484 -0.89885,-1.39232 -1.99744,-2.74995c-2.47511,-3.05872 -5.88969,-9.81387 -6.88257,-13.61596c-0.72059,-2.7594 -0.69659,-2.89505 0.70318,-3.97511c2.22956,-1.72033 9.01662,-4.081 13.80634,-4.80212c2.37361,-0.35736 4.31565,-0.83432 4.31565,-1.0599c0,-0.22558 -1.17659,-1.30254 -2.61463,-2.39325c-3.66704,-2.78131 -9.67057,-11.78956 -9.67057,-14.51059c0,-1.18591 7.8565,-6.38879 12.03964,-7.97312c1.76798,-0.6696 4.12601,-1.21746 5.24009,-1.21746c2.68882,0 2.546,-0.63329 -0.46741,-2.07266c-3.1916,-1.52448 -9.66795,-8.0799 -11.53707,-11.67794l-1.452,-2.79508l2.3297,-2.46243c3.12417,-3.30216 8.53127,-6.81986 12.36162,-8.04209c2.9162,-0.93053 4.15136,-1.96709 2.34398,-1.96709c-3.14293,0 -14.42343,-10.91802 -14.42343,-13.95995c0,-0.83148 1.43021,-2.65926 4.00395,-5.11701c3.66922,-3.50384 6.47713,-5.31208 10.76753,-6.93406c2.12578,-0.80365 2.02971,-1.42988 -0.35319,-2.30213c-5.10895,-1.87009 -13.24828,-9.96273 -13.24828,-13.17228c0,-2.18389 7.33101,-9.09814 11.98303,-11.30181c2.09673,-0.99321 3.81223,-1.99368 3.81223,-2.22325c0,-0.22957 -0.90996,-0.7505 -2.02214,-1.1576c-3.24201,-1.18671 -8.80071,-5.6707 -11.47536,-9.25673c-2.3336,-3.12876 -2.42603,-3.40094 -1.6535,-4.86935c2.26634,-4.30779 12.1645,-12.02019 15.42682,-12.02019c1.62452,0 0.93017,-0.93334 -1.29959,-1.74686c-6.16679,-2.24998 -14.18648,-9.82229 -14.18648,-13.3951c0,-3.11512 10.40737,-12.16958 14.98774,-13.03941c2.52738,-0.47996 2.52738,-1.19188 0,-1.67184c-4.9352,-0.93721 -14.98774,-9.99105 -14.98774,-13.49872c0,-3.15867 10.00439,-12.00678 15.01529,-13.27988c1.54839,-0.39338 1.85284,-1.40277 0.4231,-1.40277c-3.26746,0 -14.66051,-9.02212 -15.73976,-12.46426c-0.27777,-0.88592 0.29461,-2.10151 2.11289,-4.48726c3.16391,-4.15134 5.80553,-6.36587 10.00555,-8.38784c1.83393,-0.8829 3.34765,-1.76855 3.36381,-1.96811c0.01616,-0.19957 -1.7476,-1.24088 -3.91945,-2.31402c-2.72755,-1.34772 -5.26054,-3.29227 -8.19013,-6.28745c-2.33273,-2.38496 -4.23463,-4.67472 -4.22647,-5.08835c0.02078,-1.05117 5.04779,-7.02099 8.00128,-9.50188c1.35221,-1.13583 3.6546,-2.56312 5.11643,-3.17176c1.46183,-0.60864 2.58308,-1.33707 2.49164,-1.61875c-0.09143,-0.28167 -1.39809,-0.98548 -2.90371,-1.56401c-4.98626,-1.91598 -13.30551,-9.22364 -13.30551,-11.68761c0,-1.46667 5.31434,-7.97501 8.561,-10.48444c1.47696,-1.14158 3.57725,-2.40207 4.66732,-2.80109c1.09006,-0.39901 1.98193,-0.89624 1.98193,-1.10496c0,-0.20872 -1.11883,-0.71336 -2.48629,-1.12142c-3.71435,-1.1084 -7.95423,-3.73479 -11.86456,-7.34951l-3.49194,-3.22795l1.46252,-2.83722c1.92536,-3.73509 8.42597,-10.40392 11.53885,-11.83746c2.97059,-1.36801 3.16173,-2.0196 0.6001,-2.04565c-1.0457,-0.01068 -3.29577,-0.5069 -5.00014,-1.10282c-3.60909,-1.2619 -12.40389,-7.08563 -12.40389,-8.2136c0,-2.59486 6.67748,-12.27863 10.23222,-14.83891c1.12914,-0.81325 2.05298,-1.67186 2.05298,-1.90803c0,-0.23616 -1.46305,-0.61441 -3.25122,-0.84057c-6.50757,-0.82305 -16.0541,-4.84829 -16.0541,-6.76913c0,-2.84948 3.25643,-10.03054 6.68906,-14.75066c1.4691,-2.02013 2.67109,-3.77739 2.67109,-3.90503c0,-0.12764 -0.9872,0 -2.19379,0.28363c-3.15219,0.74099 -10.79805,0.65978 -15.20104,-0.16146l-3.78201,-0.70542l0.39584,-4.27606c0.43203,-4.66706 1.95681,-11.06875 3.49083,-14.65602c0.53651,-1.25462 0.76328,-2.1734 0.50393,-2.04172c-6.63976,3.37098 -11.93682,5.21617 -17.48027,6.08911c-2.35749,0.37124 -2.39073,0.35074 -3.04702,-1.87984c-1.22427,-4.16105 -2.02043,-11.10369 -1.73567,-15.13531c0.15529,-2.1985 0.18518,-3.99728 0.06643,-3.99728c-0.11876,0 -1.19295,1.09473 -2.38711,2.43274c-3.36922,3.7751 -12.38127,9.41105 -15.04854,9.41105c-1.94714,0 -7.89552,-13.45376 -7.9203,-17.91373c-0.01641,-2.9587 -0.65368,-2.79753 -1.99538,0.50466c-1.81823,4.47501 -10.57702,12.67156 -13.54076,12.67156c-2.60972,0 -9.2089,-8.46702 -11.10639,-14.24995c-1.07896,-3.28831 -1.72481,-3.66412 -2.30129,-1.33906c-1.07628,4.34089 -10.0656,14.40462 -12.86677,14.40462c-3.05323,0 -11.08304,-9.42016 -12.70711,-14.90732c-0.70247,-2.37344 -1.65555,-3.04699 -1.65555,-1.17c0,0.6029 -0.68339,2.40167 -1.51864,3.99728c-3.28672,6.27868 -9.66569,12.48813 -12.17431,11.85077c-3.62334,-0.92056 -11.50741,-10.50964 -12.41411,-15.09877c-0.3527,-1.78516 -1.38791,-2.60896 -1.38885,-1.10522c-0.00025,0.40713 -0.77003,2.38692 -1.71062,4.39953c-2.13401,4.56624 -9.12054,12.03373 -11.25868,12.03373c-3.01424,0 -11.4055,-8.98106 -12.86421,-13.76841c-0.37215,-1.2214 -0.86296,-2.22071 -1.09068,-2.22071c-0.22771,0 -0.9888,1.59574 -1.69132,3.54608c-1.90919,5.30042 -8.46604,13.62742 -10.7305,13.62742c-1.58899,0 -7.58177,-4.30425 -10.03942,-7.2107c-1.1708,-1.38461 -2.71345,-3.78201 -3.42811,-5.32757c-1.5559,-3.36488 -2.1769,-3.58376 -2.1769,-0.76731c0,4.86061 -6.10822,18.04311 -8.36044,18.04311c-1.94782,0 -9.6317,-4.72389 -13.15452,-8.08712c-2.16312,-2.06513 -3.93295,-3.75522 -3.93295,-3.75573c0,-0.00052 0,2.73053 0,6.06901c0,7.04313 -1.66079,15.24888 -3.08627,15.24888c-2.43172,0 -11.45145,-2.64718 -15.04301,-4.41494c-2.24898,-1.10694 -4.15872,-1.94211 -4.24386,-1.85592c-0.08514,0.08618 0.24303,0.96398 0.72928,1.95065c1.29384,2.6254 3.01938,9.91478 3.49222,14.75257l0.41192,4.21438l-1.66032,0.3771c-3.28165,0.74536 -14.57072,1.07378 -17.01681,0.49505c-1.36746,-0.32353 -2.48629,-0.47189 -2.48629,-0.32969c0,0.14221 1.024,1.64618 2.27556,3.34215c1.25156,1.69597 2.93335,4.41601 3.73732,6.04454c1.31365,2.66095 3.34727,8.65533 3.34727,9.86658c0,1.33884 -10.82881,5.48303 -16.0541,6.1439c-1.78817,0.22616 -3.25122,0.45602 -3.25122,0.5108c0,0.05477 1.78753,1.9561 3.9723,4.22514c2.57834,2.6778 4.78028,5.7212 6.27475,8.67261l2.30245,4.54706l-1.71451,1.36518c-5.19173,4.13394 -11.14292,7.08526 -15.0763,7.47666c-1.52834,0.15207 -2.7788,0.4578 -2.7788,0.67939c0,0.22158 1.02209,0.85936 2.27131,1.41728c3.41033,1.5231 7.53223,5.49184 10.38833,10.00233c1.40284,2.21543 2.55061,4.25535 2.55061,4.53315c0,0.80802 -5.52339,5.81322 -8.58159,7.77648c-1.54087,0.98919 -4.18919,2.24129 -5.88515,2.78246c-3.37894,1.07818 -3.81498,1.63779 -1.6957,2.17623c3.76529,0.95662 13.8224,10.91983 13.8224,13.69335c0,2.34812 -9.15358,10.12393 -13.85901,11.77299c-2.84789,0.99806 -2.98618,1.73426 -0.4969,2.64544c4.97528,1.82116 13.18589,9.94869 13.18589,13.05245c0,2.0837 -7.31012,9.0579 -11.84644,11.30207c-2.17185,1.07444 -3.94882,2.15453 -3.94882,2.40022c0,0.24568 0.6041,0.60017 1.34244,0.78775c4.07038,1.03414 14.45282,10.44045 14.45282,13.09399c0,1.29931 -4.92602,6.77511 -8.59162,9.55051c-1.85687,1.40592 -4.50057,2.89232 -5.87489,3.30309c-1.37432,0.41077 -2.49877,0.90163 -2.49877,1.0908c0,0.18917 0.9872,0.7003 2.19379,1.13585c5.64795,2.03881 14.18648,9.90317 14.18648,13.06638c0,3.38771 -10.16607,12.46098 -14.98774,13.37663c-2.53837,0.48205 -2.52461,1.19241 0.0325,1.67801c4.72625,0.89753 14.95809,9.97808 14.95261,13.27014c-0.00549,3.30614 -8.3152,11.00742 -14.20216,13.1623c-2.21861,0.81211 -2.89929,1.74277 -1.27466,1.74277c0.49545,0 2.00916,0.56337 3.36381,1.25192c6.20484,3.15389 13.19489,10.45137 12.40975,12.95552c-0.74699,2.38244 -8.07618,9.19701 -11.83209,11.0013c-1.98744,0.95473 -3.62674,1.89917 -3.6429,2.09873c-0.01615,0.19956 1.7189,1.23409 3.85568,2.29893c4.75297,2.36859 11.91317,9.18057 11.90453,11.32558c-0.01189,2.95065 -7.74557,10.7433 -12.71396,12.81092c-2.90599,1.20933 -3.08338,1.72573 -0.88183,2.56699c5.57219,2.12925 13.58771,8.35713 14.49975,11.26597c0.85651,2.73174 -6.42968,11.01954 -12.02007,13.67243c-1.57876,0.74919 -2.88127,1.5274 -2.89446,1.72935c-0.01319,0.20194 1.1728,0.70637 2.63552,1.12093c5.7932,1.64191 14.30578,8.27474 14.30578,11.14678c0,1.81191 -5.20558,8.97406 -8.40349,11.56201c-1.33055,1.07676 -3.27476,2.30108 -4.32047,2.72068c-2.66426,1.06907 -2.3736,1.60698 1.04821,1.93981c3.47697,0.33819 11.55911,4.25413 14.56948,7.05917l2.01621,1.8787l-2.30803,4.49386c-1.47854,2.8788 -3.72746,5.95248 -6.25754,8.55241c-2.17222,2.23219 -3.9495,4.14504 -3.9495,4.25076c0,0.10572 1.51371,0.37257 3.36381,0.593c4.05014,0.48254 10.83786,2.67515 13.849,4.47356c2.05457,1.22711 2.16576,1.44024 1.79527,3.44116c-0.5522,2.98232 -4.53957,11.24548 -7.00271,14.51198c-1.13312,1.50268 -2.06021,2.83475 -2.06021,2.96017c0,0.12541 1.11883,-0.03657 2.48629,-0.36002c2.53076,-0.59856 14.8121,-0.25931 17.31697,0.47835c1.31975,0.38865 1.35951,0.56353 0.98166,4.3176c-0.5262,5.228 -1.83053,10.90451 -3.25421,14.16247c-0.64055,1.46585 -1.06753,2.76348 -0.94885,2.88362c0.11868,0.12014 1.37233,-0.45579 2.78589,-1.27985c3.11858,-1.81801 10.2563,-4.17003 14.34257,-4.72615l2.99732,-0.40791l1.07991,4.33864c0.7077,2.84321 1.08606,6.53243 1.09774,10.70335c0.0098,3.50058 0.07823,6.3653 0.15203,6.36604c0.07382,0.00059 1.22218,-1.19345 2.55193,-2.65376c2.74921,-3.01915 9.08888,-7.42726 12.43869,-8.64891c2.21152,-0.80651 2.2813,-0.78841 3.65128,0.94752c3.13644,3.97424 6.66193,12.81501 6.66855,16.72255c0.00499,2.70447 0.65441,2.36451 2.31033,-1.20865c1.61721,-3.48965 8.86738,-11.06205 11.74762,-12.26973c1.7509,-0.73414 1.90381,-0.67059 4.43542,1.84356c3.25951,3.23702 6.95034,8.90413 8.18192,12.56299c0.51337,1.52516 1.11902,2.77301 1.3459,2.77301c0.22687,0 0.76305,-0.99932 1.1915,-2.22071c0.42845,-1.2214 1.7318,-3.58541 2.89631,-5.25336c2.25493,-3.22976 8.63052,-9.0932 9.897,-9.10198c1.60233,-0.01105 9.49328,8.80376 11.2544,12.57211c0.95306,2.03931 1.73304,4.04094 1.73329,4.44808c0.00125,1.59541 1.06124,0.62708 1.41735,-1.29447l0.00006,-0.00003z" id="path3366" fill="#000000" transform="rotate(-90 267.2813110351563,184.56253051757815) " stroke="null"/>
 </g>
</svg>